# xmcd
#
# Track frame offsets: 
#        150
#        12507
#        24037
#        37340
#        50185
#        62490
#        73652
#        86375
#        98582
#        111237
#        123462
#        135240
#        147060
#        160622
#        173015
#        187130
#        199797
#        212150
#        224905
#        235807
#        247100
#        258390
#        270665
#        284117
#
# Disc length: 3956 seconds
#
# Revision: 0
# Processed by: cddbd v1.5.1PL0 Copyright (c) Steve Scherf et al.
# Submitted via: ExactAudioCopy v0.95a4
#
DISCID=6e0f7218
DTITLE=Hank Locklin - Send Me The Pillow You Dream On - Disc 2
DYEAR=1900
DGENRE=Country
TTITLE0=Pinball Millionaire (1950)
TTITLE1=Paper Face (1950)
TTITLE2=Come Share The Sunshine With Me (1950)
TTITLE3=No One Is Sweeter Than You (1950)
TTITLE4=A Year Of Time (1950)
TTITLE5=To Whom It May Concern (1950)
TTITLE6=The Song Of The Whispering Leaves (1951)
TTITLE7=Won't You Change Your Mind (1953)
TTITLE8=The Holy Train (1950)
TTITLE9=Is There Room For Me (1950)
TTITLE10=Who Is Knocking At My Heart (1952)
TTITLE11=The Harvest Is Ripe (The Labourers Are Few) (1952)
TTITLE12=I Could Love You Darling (1951)
TTITLE13=Rio Grande Waltz (1963)
TTITLE14=Your House Of Love Won't Stand (1951)
TTITLE15=Who Do You Think You're Fooling (1951)
TTITLE16=Send Me The Pillow You Dream On #2 (1951)
TTITLE17=I Always Lose (1951)
TTITLE18=Stumpy Joe (1951)
TTITLE19=I'm Going To Copyright Your Kisses (1951)
TTITLE20=Down Texas Way (1952)
TTITLE21=Tomorrow's Just Another Day To Cry (1952)
TTITLE22=Tell Me You Love Me (1952)
TTITLE23=Could You (1952)
EXTD=
EXTT0=
EXTT1=
EXTT2=
EXTT3=
EXTT4=
EXTT5=
EXTT6=
EXTT7=
EXTT8=
EXTT9=
EXTT10=
EXTT11=
EXTT12=
EXTT13=
EXTT14=
EXTT15=
EXTT16=
EXTT17=
EXTT18=
EXTT19=
EXTT20=
EXTT21=
EXTT22=
EXTT23=
PLAYORDER=
